# xmcd
#
# Track frame offsets:
#      150
#      13285
#      27302
#      46125
#      58502
#      77435
#      93057
#      110755
#      127890
#      145850
# 
# Disc length: 2169 seconds
#
# Revision: 2
# Processed by: cddbd v1.4PL0 Copyright (c) Steve Scherf et al.
#
# Submitted via: FreeRIP 1.21
#
DISCID=7708770a
DTITLE=Jo Dee Messina - Jo Dee Messina
DYEAR=1996
DGENRE=country
TTITLE0=You're Not In Kansas Anymore
TTITLE1=On A Wing And A Prayer
TTITLE2=He'd Never Seen Julie Cry
TTITLE3=Do You Wanna Make Something Of It
TTITLE4=Let It Go
TTITLE5=Heads Carolina, Tails California
TTITLE6=Walk To The Light
TTITLE7=I Didn't Have To Leave You
TTITLE8=Every Little Girl's Dream
TTITLE9=Another Shoulder At The Wheel
EXTD=
EXTT0=
EXTT1=
EXTT2=
EXTT3=
EXTT4=
EXTT5=
EXTT6=
EXTT7=
EXTT8=
EXTT9=
PLAYORDER=
